<?xml version="1.0" encoding="utf-8"?>
<!-- Generator: Adobe Illustrator 17.1.0, SVG Export Plug-In . SVG Version: 6.00 Build 0)  -->
<!DOCTYPE svg PUBLIC "-//W3C//DTD SVG 1.1//EN" "http://www.w3.org/Graphics/SVG/1.1/DTD/svg11.dtd">
<svg version="1.1" id="Calque_3" xmlns="http://www.w3.org/2000/svg" xmlns:xlink="http://www.w3.org/1999/xlink" x="0px" y="0px"
	 viewBox="0 0 1100 1400" enable-background="new 0 0 1100 1400" xml:space="preserve">
<polygon id="contour" fill="#AAAAAA" stroke="#1D1D1B" stroke-width="1.4844" stroke-miterlimit="10" points="982.2,654.2 934.5,654.2 
	934.4,144.6 837,185.8 836.7,587.4 706.6,597.6 706.6,239.5 611,283.6 611,604.9 482.2,614.9 482.2,348.9 385,408.8 385,654.2 
	117.8,654.2 117.8,709.4 604.6,709.4 938.8,709.4 982.2,709.4 "/>
<polygon fill="#FFDE00" stroke="#000000" stroke-width="0.8985" stroke-miterlimit="10" points="831.1,184.1 831.1,653.9 
	117.2,653.9 117.2,709.1 980.4,709.1 980.4,653.9 938.4,653.9 938.4,136.8 "/>
<polygon name="Z222" id="e222" fill="#FFDE00" stroke="#000000" stroke-width="0.8985" stroke-miterlimit="10" points="831.1,254.5 884.3,254.5 
	884.3,187.4 874.4,165.1 831.1,184.1 "/>
<rect name="E219" id="e219" x="896.1" y="188.2" fill="#FFDE00" stroke="#000000" stroke-width="0.8985" stroke-miterlimit="10" width="42.3" height="41.4"/>
<rect name="E217" id="e217" x="896.1" y="229.7" fill="#FFDE00" stroke="#000000" stroke-width="0.8985" stroke-miterlimit="10" width="42.3" height="16.9"/>
<rect name="E215" id="e215" x="896.1" y="246.5" fill="#FFDE00" stroke="#000000" stroke-width="0.8985" stroke-miterlimit="10" width="42.3" height="50.2"/>
<rect name="E213" id="e213" x="896.1" y="296.7" fill="#FFDE00" stroke="#000000" stroke-width="0.8985" stroke-miterlimit="10" width="42.3" height="16.5"/>
<rect name="E211" id="e211" x="896.1" y="313.2" fill="#FFDE00" stroke="#000000" stroke-width="0.8985" stroke-miterlimit="10" width="42.3" height="50"/>
<rect name="E209" id="e209" x="896.1" y="363.1" fill="#FFDE00" stroke="#000000" stroke-width="0.8985" stroke-miterlimit="10" width="42.3" height="50.4"/>
<rect name="E207" id="e207" x="896.1" y="413.6" fill="#FFDE00" stroke="#000000" stroke-width="0.8985" stroke-miterlimit="10" width="42.3" height="49.9"/>
<rect name="E205" id="e205" x="896.1" y="463.4" fill="#FFDE00" stroke="#000000" stroke-width="0.8985" stroke-miterlimit="10" width="42.3" height="16.8"/>
<rect name="E201 - E203" id="e201e203" x="896.1" y="480.2" fill="#FFDE00" stroke="#000000" stroke-width="0.8985" stroke-miterlimit="10" width="42.3" height="60.9"/>
<rect name="E220" id="e220" x="831.1" y="254.5" fill="#FFDE00" stroke="#000000" stroke-width="0.8985" stroke-miterlimit="10" width="53.1" height="16.7"/>
<rect name="E218" id="e218" x="831.1" y="271.3" fill="#FFDE00" stroke="#000000" stroke-width="0.8985" stroke-miterlimit="10" width="53.1" height="41.8"/>
<rect name="E216" id="e216" x="831.1" y="313" fill="#FFDE00" stroke="#000000" stroke-width="0.8985" stroke-miterlimit="10" width="53.1" height="50.4"/>
<rect name="E210" id="e210" x="831.1" y="363.4" fill="#FFDE00" stroke="#000000" stroke-width="0.8985" stroke-miterlimit="10" width="53.1" height="58.4"/>
<rect name="E206" id="e206" x="831.1" y="421.8" fill="#FFDE00" stroke="#000000" stroke-width="0.8985" stroke-miterlimit="10" width="53.1" height="58.1"/>
<rect name="E202" id="e202" x="831.1" y="480.1" fill="#FFDE00" stroke="#000000" stroke-width="0.8985" stroke-miterlimit="10" width="53.1" height="66.8"/>
<rect name="S230" id="s230" x="138.1" y="668.1" fill="#FFDE00" stroke="#000000" stroke-width="0.8985" stroke-miterlimit="10" width="5.6" height="41"/>
<rect name="S229" id="s229" x="143.6" y="668.1" fill="#FFDE00" stroke="#000000" stroke-width="0.8985" stroke-miterlimit="10" width="8.7" height="41"/>
<rect name="S228" id="s228" x="152.3" y="668.1" fill="#FFDE00" stroke="#000000" stroke-width="0.8985" stroke-miterlimit="10" width="16.4" height="41"/>
<rect name="S227" id="s227" x="168.8" y="668.1" fill="#FFDE00" stroke="#000000" stroke-width="0.8985" stroke-miterlimit="10" width="25.1" height="41"/>
<rect name="S226" id="s226" x="193.8" y="668.1" fill="#FFDE00" stroke="#000000" stroke-width="0.8985" stroke-miterlimit="10" width="25.3" height="41"/>
<rect name="S225" id="s225" x="219.2" y="668.1" fill="#FFDE00" stroke="#000000" stroke-width="0.8985" stroke-miterlimit="10" width="33.3" height="41"/>
<rect name="S224" id="s224" x="252.5" y="668.1" fill="#FFDE00" stroke="#000000" stroke-width="0.8985" stroke-miterlimit="10" width="16.4" height="41"/>
<rect name="S223" id="s223" x="268.9" y="668.1" fill="#FFDE00" stroke="#000000" stroke-width="0.8985" stroke-miterlimit="10" width="25.3" height="41"/>
<rect name="S222" id="s222" x="294.3" y="668.1" fill="#FFDE00" stroke="#000000" stroke-width="0.8985" stroke-miterlimit="10" width="16.7" height="41"/>
<rect name="S221" id="s221" x="311" y="668.1" fill="#FFDE00" stroke="#000000" stroke-width="0.8985" stroke-miterlimit="10" width="25.1" height="41"/>
<rect name="S220" id="s220" x="336" y="668.1" fill="#FFDE00" stroke="#000000" stroke-width="0.8985" stroke-miterlimit="10" width="16.7" height="41"/>
<rect name="S219" id="s219" x="352.7" y="668.1" fill="#FFDE00" stroke="#000000" stroke-width="0.8985" stroke-miterlimit="10" width="16.4" height="41"/>
<rect name="S218" id="s218" x="369.1" y="668.1" fill="#FFDE00" stroke="#000000" stroke-width="0.8985" stroke-miterlimit="10" width="16.7" height="41"/>
<rect name="S217" id="s217" x="385.8" y="668.1" fill="#FFDE00" stroke="#000000" stroke-width="0.8985" stroke-miterlimit="10" width="33.3" height="41"/>
<rect name="S216" id="s216" x="419.2" y="668.1" fill="#FFDE00" stroke="#000000" stroke-width="0.8985" stroke-miterlimit="10" width="16.7" height="41"/>
<rect name="S215" id="s215" x="435.9" y="668.1" fill="#FFDE00" stroke="#000000" stroke-width="0.8985" stroke-miterlimit="10" width="16.7" height="41"/>
<rect name="S214" id="s214" x="452.7" y="668.1" fill="#FFDE00" stroke="#000000" stroke-width="0.8985" stroke-miterlimit="10" width="17" height="41"/>
<rect name="S213" id="s213" x="469.6" y="668.1" fill="#FFDE00" stroke="#000000" stroke-width="0.8985" stroke-miterlimit="10" width="16.7" height="41"/>
<rect name="S212 Bis" id="s212bissalledereunionelec" x="486.4" y="668.1" fill="#FFDE00" stroke="#000000" stroke-width="0.8985" stroke-miterlimit="10" width="33.2" height="41"/>
<rect name="S212" id="s212" x="519.4" y="668.1" fill="#FFDE00" stroke="#000000" stroke-width="0.8985" stroke-miterlimit="10" width="25.1" height="41"/>
<rect name="S211" id="s211" x="544.5" y="668.1" fill="#FFDE00" stroke="#000000" stroke-width="0.8985" stroke-miterlimit="10" width="33.7" height="41"/>
<rect name="S210" id="s210" x="578.2" y="668.1" fill="#FFDE00" stroke="#000000" stroke-width="0.8985" stroke-miterlimit="10" width="25.1" height="41"/>
<rect name="S209" id="s209" x="670.2" y="668.3" fill="#FFDE00" stroke="#000000" stroke-width="0.8985" stroke-miterlimit="10" width="33" height="40.8"/>
<rect name="S208" id="s208" x="703.2" y="668.3" fill="#FFDE00" stroke="#000000" stroke-width="0.8985" stroke-miterlimit="10" width="33.7" height="40.8"/>
<rect name="S207" id="s207" x="736.8" y="668.3" fill="#FFDE00" stroke="#000000" stroke-width="0.8985" stroke-miterlimit="10" width="16.7" height="40.8"/>
<rect name="S206" id="s206" x="753.5" y="668.3" fill="#FFDE00" stroke="#000000" stroke-width="0.8985" stroke-miterlimit="10" width="24.7" height="40.8"/>
<rect name="S204" id="s204" x="778.3" y="668.3" fill="#FFDE00" stroke="#000000" stroke-width="0.8985" stroke-miterlimit="10" width="67.1" height="40.8"/>
<rect name="S203" id="s203" x="845.4" y="668.3" fill="#FFDE00" stroke="#000000" stroke-width="0.8985" stroke-miterlimit="10" width="24.5" height="40.8"/>
<rect name="S202" id="s202" x="929" y="668.3" fill="#FFDE00" stroke="#000000" stroke-width="0.8985" stroke-miterlimit="10" width="16.5" height="40.4"/>
<rect name="S201" id="s201" x="945.6" y="668.3" fill="#FFDE00" stroke="#000000" stroke-width="0.8985" stroke-miterlimit="10" width="34.9" height="40.8"/>
</svg>
