<?xml version="1.0" encoding="utf-8"?>
<!-- Generator: Adobe Illustrator 17.1.0, SVG Export Plug-In . SVG Version: 6.00 Build 0)  -->
<!DOCTYPE svg PUBLIC "-//W3C//DTD SVG 1.1//EN" "http://www.w3.org/Graphics/SVG/1.1/DTD/svg11.dtd">
<svg version="1.1" id="Calque_3" xmlns="http://www.w3.org/2000/svg" xmlns:xlink="http://www.w3.org/1999/xlink" x="0px" y="0px"
	 viewBox="0 0 1100 1400" enable-background="new 0 0 1100 1400" xml:space="preserve">
<polygon fill="#FFDE00" stroke="#000000" stroke-width="0.8636" stroke-miterlimit="10" points="118.4,653.8 379.5,653.8 379.9,412 
	481.2,349.8 480.7,614.3 606.9,603.3 607.5,284.2 707.5,239.4 706.7,596.7 833,586.4 833.4,184.9 935.4,139 935.5,653.3 
	979.8,653.3 979.8,708.3 118.4,708.9 "/>
<polygon id="a114" fill="#FFDE00" stroke="#000000" stroke-width="0.8636" stroke-miterlimit="10" points="379.9,412 400.4,399.4 
	408,410.8 407.6,447.1 379.9,447.2 "/>
<polygon name="A115" id="a115" fill="#FFDE00" stroke="#000000" stroke-width="0.8636" stroke-miterlimit="10" points="428.2,382.4 441.6,405.5 
	480.8,405.1 481.2,349.8 "/>
<polygon name="I116" id="i116reserveeconceptionnumerique" fill="#FFDE00" stroke="#000000" stroke-width="0.8636" stroke-miterlimit="10" points="
	645,267.4 645,346.8 607.4,346.8 607.5,284.2 "/>
<polygon name="E118-E120" id="e118120salletpelec1a" fill="#FFDE00" stroke="#000000" stroke-width="0.8636" stroke-miterlimit="10" points="
	874.8,166.2 833.4,184.9 833.3,263.6 883.5,263.5 883.5,188.2 "/>
<rect name="TD14" id="td14" x="144.7" y="666.8" fill="#FFDE00" stroke="#000000" stroke-width="0.8636" stroke-miterlimit="10" width="49.9" height="42.1"/>
<rect name="TD13" id="td13" x="194.6" y="666.8" fill="#FFDE00" stroke="#000000" stroke-width="0.8636" stroke-miterlimit="10" width="58.3" height="42.1"/>
<rect name="TD12" id="td12" x="253" y="666.8" fill="#FFDE00" stroke="#000000" stroke-width="0.8636" stroke-miterlimit="10" width="58.3" height="42.1"/>
<rect name="TD11" id="td11" x="311.2" y="666.8" fill="#FFDE00" stroke="#000000" stroke-width="0.8636" stroke-miterlimit="10" width="75.2" height="42"/>
<rect name="TD10" id="td10" x="386.4" y="666.8" fill="#FFDE00" stroke="#000000" stroke-width="0.8636" stroke-miterlimit="10" width="49.9" height="42"/>
<rect name="TD9" id="td9" x="436.5" y="666.8" fill="#FFDE00" stroke="#000000" stroke-width="0.8636" stroke-miterlimit="10" width="58.3" height="42"/>
<rect name="TD8" id="td8" x="494.7" y="666.8" fill="#FFDE00" stroke="#000000" stroke-width="0.8636" stroke-miterlimit="10" width="59.1" height="41.9"/>
<rect name="TD7" id="td7" x="553.7" y="666.8" fill="#FFDE00" stroke="#000000" stroke-width="0.8636" stroke-miterlimit="10" width="50.7" height="41.9"/>
<rect name="TD6" id="td6" x="670.5" y="667.7" fill="#FFDE00" stroke="#000000" stroke-width="0.8636" stroke-miterlimit="10" width="82.7" height="40.8"/>
<rect name="TD5" id="td5" x="753.2" y="667.7" fill="#FFDE00" stroke="#000000" stroke-width="0.8636" stroke-miterlimit="10" width="58.6" height="40.8"/>
<rect name="Photocopieuse" id="photocopieuse" x="811.8" y="667.7" fill="#FFDE00" stroke="#000000" stroke-width="0.8636" stroke-miterlimit="10" width="25" height="40.8"/>
<rect name="TD4" id="td4" x="928.5" y="667.7" fill="#FFDE00" stroke="#000000" stroke-width="0.8636" stroke-miterlimit="10" width="51.3" height="40.6"/>
<rect name="E101" id="e101" x="895.8" y="530.1" fill="#FFDE00" stroke="#000000" stroke-width="0.8636" stroke-miterlimit="10" width="39.7" height="16.3"/>
<rect name="E103" id="e103" x="895.8" y="513.7" fill="#FFDE00" stroke="#000000" stroke-width="0.8636" stroke-miterlimit="10" width="39.7" height="16.4"/>
<rect name="E105" id="e105" x="895.8" y="497" fill="#FFDE00" stroke="#000000" stroke-width="0.8636" stroke-miterlimit="10" width="39.7" height="16.6"/>
<rect name="E107" id="e107" x="895.8" y="480.3" fill="#FFDE00" stroke="#000000" stroke-width="0.8636" stroke-miterlimit="10" width="39.7" height="16.7"/>
<rect name="E109" id="e109" x="895.8" y="463.7" fill="#FFDE00" stroke="#000000" stroke-width="0.8636" stroke-miterlimit="10" width="39.7" height="16.7"/>
<rect name="E111" id="e111" x="895.8" y="447.1" fill="#FFDE00" stroke="#000000" stroke-width="0.8636" stroke-miterlimit="10" width="39.7" height="16.7"/>
<rect name="E113" id="e113" x="895.8" y="430.4" fill="#FFDE00" stroke="#000000" stroke-width="0.8636" stroke-miterlimit="10" width="39.7" height="16.7"/>
<rect name="E115" id="e115" x="895.8" y="414.7" fill="#FFDE00" stroke="#000000" stroke-width="0.8636" stroke-miterlimit="10" width="39.7" height="15.7"/>
<rect name="E117" id="e117" x="895.8" y="347.1" fill="#FFDE00" stroke="#000000" stroke-width="0.8636" stroke-miterlimit="10" width="39.7" height="67.5"/>
<rect name="E119" id="e119" x="895.8" y="330.5" fill="#FFDE00" stroke="#000000" stroke-width="0.8636" stroke-miterlimit="10" width="39.7" height="16.6"/>
<rect name="E121" id="e121" x="895.8" y="313.5" fill="#FFDE00" stroke="#000000" stroke-width="0.8636" stroke-miterlimit="10" width="39.7" height="17"/>
<rect name="E123 - E125" id="e123125salletpmesures" x="895.8" y="230.2" fill="#FFDE00" stroke="#000000" stroke-width="0.8636" stroke-miterlimit="10" width="39.7" height="83.3"/>
<rect name="E127" id="e127" x="895.8" y="214" fill="#FFDE00" stroke="#000000" stroke-width="0.8636" stroke-miterlimit="10" width="39.7" height="16.2"/>
<rect name="E129" id="e129" x="895.8" y="189.1" fill="#FFDE00" stroke="#000000" stroke-width="0.8636" stroke-miterlimit="10" width="39.6" height="24.9"/>
<rect name="E102" id="e102" x="833.3" y="263.6" fill="#FFDE00" stroke="#000000" stroke-width="0.8636" stroke-miterlimit="10" width="50.3" height="74.8"/>
<rect name="E104 - E106" id="e104106" x="833" y="338.3" fill="#FFDE00" stroke="#000000" stroke-width="0.8636" stroke-miterlimit="10" width="50.5" height="83.3"/>
<rect name="E108" id="e108" x="833" y="421.6" fill="#FFDE00" stroke="#000000" stroke-width="0.8636" stroke-miterlimit="10" width="50.5" height="17.1"/>
<rect name="E110 - 112" id="e110112" x="833" y="438.8" fill="#FFDE00" stroke="#000000" stroke-width="0.8636" stroke-miterlimit="10" width="50.5" height="74.5"/>
<rect name="E114 - E116" id="e114116salletpelec2a" x="833" y="513.2" fill="#FFDE00" stroke="#000000" stroke-width="0.8636" stroke-miterlimit="10" width="50.5" height="33.1"/>
<rect name="I112" id="i112" x="607.4" y="346.8" fill="#FFDE00" stroke="#000000" stroke-width="0.8636" stroke-miterlimit="10" width="38.2" height="66.7"/>
<rect name="I108" id="i108" x="607.3" y="413.5" fill="#FFDE00" stroke="#000000" stroke-width="0.8636" stroke-miterlimit="10" width="38.3" height="58"/>
<rect name="I106" id="i106" x="607.2" y="471.5" fill="#FFDE00" stroke="#000000" stroke-width="0.8636" stroke-miterlimit="10" width="38.3" height="17.2"/>
<rect name="I102" id="i102" x="607.2" y="488.6" fill="#FFDE00" stroke="#000000" stroke-width="0.8636" stroke-miterlimit="10" width="38.3" height="57.9"/>
<rect name="I101" id="i101" x="657.3" y="488.6" fill="#FFDE00" stroke="#000000" stroke-width="0.8636" stroke-miterlimit="10" width="49.5" height="57.9"/>
<rect name="AEI" id="aei" x="657.3" y="463.7" fill="#FFDE00" stroke="#000000" stroke-width="0.8636" stroke-miterlimit="10" width="49.7" height="25"/>
<rect name="I107" id="i107" x="657.3" y="405.4" fill="#FFDE00" stroke="#000000" stroke-width="0.8636" stroke-miterlimit="10" width="49.7" height="58.3"/>
<rect name="I111" id="i111" x="657.3" y="346.8" fill="#FFDE00" stroke="#000000" stroke-width="0.8636" stroke-miterlimit="10" width="49.7" height="58.7"/>
<rect name="I115" id="i115" x="657.3" y="289" fill="#FFDE00" stroke="#000000" stroke-width="0.8636" stroke-miterlimit="10" width="49.9" height="57.6"/>
<rect name="A113" id="a113" x="457.5" y="405.2" fill="#FFDE00" stroke="#000000" stroke-width="0.8636" stroke-miterlimit="10" width="23.5" height="42.3"/>
<rect name="A111" id="a111" x="457.5" y="447.5" fill="#FFDE00" stroke="#000000" stroke-width="0.8636" stroke-miterlimit="10" width="23.5" height="33.2"/>
<rect name="A109" id="a109" x="457.5" y="489.1" fill="#FFDE00" stroke="#000000" stroke-width="0.8636" stroke-miterlimit="10" width="23.1" height="24.6"/>
<rect name="A107" id="a107" x="445.2" y="513.7" fill="#FFDE00" stroke="#000000" stroke-width="0.8636" stroke-miterlimit="10" width="35.4" height="17.1"/>
<rect name="A105" id="a105" x="445.2" y="530.8" fill="#FFDE00" stroke="#000000" stroke-width="0.8636" stroke-miterlimit="10" width="35.4" height="15.8"/>
<rect name="A103" id="a103" x="445.2" y="546.6" fill="#FFDE00" stroke="#000000" stroke-width="0.8636" stroke-miterlimit="10" width="35.4" height="17.1"/>
<rect name="A101" id="a101" x="445.2" y="563.7" fill="#FFDE00" stroke="#000000" stroke-width="0.8636" stroke-miterlimit="10" width="35.4" height="16.5"/>
<rect name="A102" id="a102" x="379.7" y="564" fill="#FFDE00" stroke="#000000" stroke-width="0.8636" stroke-miterlimit="10" width="40" height="16.2"/>
<rect name="A104" id="a104" x="379.7" y="547.3" fill="#FFDE00" stroke="#000000" stroke-width="0.8636" stroke-miterlimit="10" width="40" height="16.7"/>
<rect name="A106" id="a106" x="379.7" y="530.7" fill="#FFDE00" stroke="#000000" stroke-width="0.8636" stroke-miterlimit="10" width="40" height="16.7"/>
<rect name="A108" id="a108" x="379.7" y="514.1" fill="#FFDE00" stroke="#000000" stroke-width="0.8636" stroke-miterlimit="10" width="40" height="16.6"/>
<rect name="A112" id="a112" x="379.9" y="447.2" fill="#FFDE00" stroke="#000000" stroke-width="0.8636" stroke-miterlimit="10" width="27.7" height="33.7"/>
<rect name="A110" id="a110" x="379.9" y="480.8" fill="#FFDE00" stroke="#000000" stroke-width="0.8636" stroke-miterlimit="10" width="27.7" height="33.2"/>
<polygon name="Salle du conseil" id="salleduconseil" fill="#FFDE00" stroke="#000000" stroke-width="0.8636" stroke-miterlimit="10" points="416.1,413.8 
	449.1,413.8 449.4,489.7 449.1,490.9 448.3,492.7 447.2,494.7 446.3,496 445.2,497.7 444,499 442.6,500.1 441,501.1 439.6,502.1 
	436.5,503.2 432.7,503.6 429.2,503.2 426.3,502.3 424,501.1 421.3,499 420.1,497.8 419.1,496.4 417.5,493.8 416.8,492.4 
	415.7,489.7 "/>
</svg>
