<?xml version="1.0" encoding="utf-8"?>
<!-- Generator: Adobe Illustrator 17.1.0, SVG Export Plug-In . SVG Version: 6.00 Build 0)  -->
<!DOCTYPE svg PUBLIC "-//W3C//DTD SVG 1.1//EN" "http://www.w3.org/Graphics/SVG/1.1/DTD/svg11.dtd">
<svg version="1.1" id="Calque_2" xmlns="http://www.w3.org/2000/svg" xmlns:xlink="http://www.w3.org/1999/xlink" x="0px" y="0px"
	 viewBox="0 0 1100 1400" enable-background="new 0 0 1100 1400" xml:space="preserve">
<polygon id="contour" fill="#AAAAAA" stroke="#1D1D1B" stroke-width="1.4844" stroke-miterlimit="10" points="982.2,654.2 934.5,654.2 
	934.4,144.6 837,185.8 836.7,587.4 706.6,597.6 706.6,239.5 611,283.6 611,604.9 482.2,614.9 482.2,348.9 385,408.8 385,654.2 
	117.8,654.2 117.8,709.4 604.6,709.4 938.8,709.4 982.2,709.4 "/>
<rect x="118.3" y="653.6" fill="#FFDE00" stroke="#000000" stroke-width="0.8989" stroke-miterlimit="10" width="863.7" height="55.2"/>
<rect name="S336" id="s336" x="139.2" y="667.8" fill="#FFDE00" stroke="#000000" stroke-width="0.8989" stroke-miterlimit="10" width="6.5" height="41"/>
<rect name="S335" id="s335" x="145.6" y="667.8" fill="#FFDE00" stroke="#000000" stroke-width="0.8989" stroke-miterlimit="10" width="7.8" height="41"/>
<rect name="S333 Atelier Robot" id="s333atelierrobot" x="153.4" y="667.8" fill="#FFDE00" stroke="#000000" stroke-width="0.8989" stroke-miterlimit="10" width="58.3" height="41"/>
<rect name="S332" id="s332" x="211.8" y="667.8" fill="#FFDE00" stroke="#000000" stroke-width="0.8989" stroke-miterlimit="10" width="33.4" height="41"/>
<rect name="S331" id="s331" x="245.1" y="667.8" fill="#FFDE00" stroke="#000000" stroke-width="0.8989" stroke-miterlimit="10" width="25.3" height="41"/>
<rect name="S330" id="s330" x="270.3" y="667.8" fill="#FFDE00" stroke="#000000" stroke-width="0.8989" stroke-miterlimit="10" width="16.6" height="41"/>
<rect name="S329" id="s329" x="286.9" y="667.8" fill="#FFDE00" stroke="#000000" stroke-width="0.8989" stroke-miterlimit="10" width="16.8" height="41"/>
<rect name="S328" id="s328" x="303.8" y="667.8" fill="#FFDE00" stroke="#000000" stroke-width="0.8989" stroke-miterlimit="10" width="16.5" height="41"/>
<rect name="S327" id="s327" x="320.3" y="667.8" fill="#FFDE00" stroke="#000000" stroke-width="0.8989" stroke-miterlimit="10" width="16.9" height="41"/>
<rect name="S326" id="s326" x="337.2" y="667.8" fill="#FFDE00" stroke="#000000" stroke-width="0.8989" stroke-miterlimit="10" width="16.6" height="41"/>
<rect name="S325" id="s325" x="353.7" y="667.8" fill="#FFDE00" stroke="#000000" stroke-width="0.8989" stroke-miterlimit="10" width="16.9" height="41"/>
<rect name="S324" id="s324" x="370.6" y="667.8" fill="#FFDE00" stroke="#000000" stroke-width="0.8989" stroke-miterlimit="10" width="16.5" height="41"/>
<rect name="S323" id="s323" x="387.2" y="667.8" fill="#FFDE00" stroke="#000000" stroke-width="0.8989" stroke-miterlimit="10" width="33.4" height="41"/>
<rect name="S322" id="s322" x="420.6" y="667.8" fill="#FFDE00" stroke="#000000" stroke-width="0.8989" stroke-miterlimit="10" width="25.4" height="41"/>
<rect name="S321" id="s321" x="446" y="667.8" fill="#FFDE00" stroke="#000000" stroke-width="0.8989" stroke-miterlimit="10" width="16.5" height="41"/>
<rect name="S320" id="s320" x="462.4" y="667.8" fill="#FFDE00" stroke="#000000" stroke-width="0.8989" stroke-miterlimit="10" width="16.9" height="41"/>
<rect name="S319 Bis" id="s319bis" x="479.4" y="667.8" fill="#FFDE00" stroke="#000000" stroke-width="0.8989" stroke-miterlimit="10" width="33.4" height="41"/>
<rect name="S319" id="s319" x="512.7" y="667.8" fill="#FFDE00" stroke="#000000" stroke-width="0.8989" stroke-miterlimit="10" width="16.6" height="41"/>
<rect name="S318" id="s318" x="529.3" y="667.8" fill="#FFDE00" stroke="#000000" stroke-width="0.8989" stroke-miterlimit="10" width="16.8" height="41"/>
<rect name="S317" id="s317" x="546.1" y="667.8" fill="#FFDE00" stroke="#000000" stroke-width="0.8989" stroke-miterlimit="10" width="16.8" height="41"/>
<rect name="S316" id="s316" x="562.8" y="667.8" fill="#FFDE00" stroke="#000000" stroke-width="0.8989" stroke-miterlimit="10" width="16.6" height="41"/>
<rect name="S315" id="s315" x="579.4" y="667.8" fill="#FFDE00" stroke="#000000" stroke-width="0.8989" stroke-miterlimit="10" width="24.9" height="41"/>
<rect name="S314" id="s314" x="671.5" y="667.8" fill="#FFDE00" stroke="#000000" stroke-width="0.8989" stroke-miterlimit="10" width="16.5" height="40.9"/>
<rect name="S313" id="s313" x="688" y="667.8" fill="#FFDE00" stroke="#000000" stroke-width="0.8989" stroke-miterlimit="10" width="16.7" height="40.9"/>
<rect name="S312" id="s312" x="704.8" y="667.8" fill="#FFDE00" stroke="#000000" stroke-width="0.8989" stroke-miterlimit="10" width="16.9" height="40.9"/>
<rect name="S311" id="s311" x="721.6" y="667.8" fill="#FFDE00" stroke="#000000" stroke-width="0.8989" stroke-miterlimit="10" width="16.5" height="40.9"/>
<rect name="S310" id="s310" x="738.1" y="667.8" fill="#FFDE00" stroke="#000000" stroke-width="0.8989" stroke-miterlimit="10" width="16.7" height="40.9"/>
<rect name="S309" id="s309" x="754.8" y="667.8" fill="#FFDE00" stroke="#000000" stroke-width="0.8989" stroke-miterlimit="10" width="16.8" height="40.9"/>
<rect name="S308" id="s308" x="771.5" y="667.8" fill="#FFDE00" stroke="#000000" stroke-width="0.8989" stroke-miterlimit="10" width="16.9" height="40.9"/>
<rect name="S307" id="s307" x="788.5" y="667.8" fill="#FFDE00" stroke="#000000" stroke-width="0.8989" stroke-miterlimit="10" width="16.5" height="40.9"/>
<rect name="S306" id="s306" x="804.9" y="667.8" fill="#FFDE00" stroke="#000000" stroke-width="0.8989" stroke-miterlimit="10" width="16.7" height="40.9"/>
<rect name="S305" id="s305" x="821.7" y="667.8" fill="#FFDE00" stroke="#000000" stroke-width="0.8989" stroke-miterlimit="10" width="16.9" height="40.9"/>
<rect name="S304" id="s304" x="838.5" y="667.8" fill="#FFDE00" stroke="#000000" stroke-width="0.8989" stroke-miterlimit="10" width="16.7" height="40.9"/>
<rect name="S303" id="s303" x="855.3" y="667.8" fill="#FFDE00" stroke="#000000" stroke-width="0.8989" stroke-miterlimit="10" width="16.1" height="40.9"/>
<rect name="S302" id="s302" x="930.6" y="667.8" fill="#FFDE00" stroke="#000000" stroke-width="0.8989" stroke-miterlimit="10" width="16.6" height="40.9"/>
<rect name="S301" id="s301" x="947.2" y="667.8" fill="#FFDE00" stroke="#000000" stroke-width="0.8989" stroke-miterlimit="10" width="34.8" height="40.9"/>
</svg>
