<?xml version="1.0" encoding="utf-8"?>
<!-- Generator: Adobe Illustrator 17.1.0, SVG Export Plug-In . SVG Version: 6.00 Build 0)  -->
<!DOCTYPE svg PUBLIC "-//W3C//DTD SVG 1.1//EN" "http://www.w3.org/Graphics/SVG/1.1/DTD/svg11.dtd">
<svg version="1.1" id="Calque_1" xmlns="http://www.w3.org/2000/svg" xmlns:xlink="http://www.w3.org/1999/xlink" x="0px" y="0px"
	 viewBox="0 0 1100 1400" enable-background="new 0 0 1100 1400" xml:space="preserve">
<polygon fill="#FFDE00" stroke="#1D1D1B" stroke-width="1.4844" stroke-miterlimit="10" points="982.2,657.1 934.5,657.1 
	934.4,147.5 837,188.7 836.7,590.3 706.6,600.5 706.6,242.4 611,286.5 611,607.8 482.2,617.8 482.2,351.8 385,411.7 385,657.1 
	117.8,657.1 117.8,712.3 604.6,712.3 938.8,712.3 982.2,712.3 "/>
<rect x="144.9" y="672.4" fill="#FFDE00" stroke="#1D1D1B" stroke-width="1.475" stroke-miterlimit="10" width="24.5" height="40"/>
<rect x="169.5" y="672.4" fill="#FFDE00" stroke="#1D1D1B" stroke-width="1.475" stroke-miterlimit="10" width="16.7" height="40"/>
<rect name="Eirbware" id="eirbware" x="186.3" y="672.4" fill="#FFDE00" stroke="#1D1D1B" stroke-width="1.475" stroke-miterlimit="10" width="25.2" height="40"/>
<rect name="TD3" id="td3" x="211.3" y="672.4" fill="#FFDE00" stroke="#1D1D1B" stroke-width="1.475" stroke-miterlimit="10" width="58.5" height="40"/>
<rect name="TD2" id="td2" x="270" y="672.4" fill="#FFDE00" stroke="#1D1D1B" stroke-width="1.4844" stroke-miterlimit="10" width="58.4" height="40"/>
<rect name="TD1" id="td1" x="328.3" y="672.4" fill="#FFDE00" stroke="#1D1D1B" stroke-width="1.4844" stroke-miterlimit="10" width="42" height="40"/>
<rect x="370.5" y="672.4" fill="#FFDE00" stroke="#1D1D1B" stroke-width="1.4901" stroke-miterlimit="10" width="16.4" height="40"/>
<rect x="387.5" y="672.4" fill="#FFDE00" stroke="#1D1D1B" stroke-width="1.4901" stroke-miterlimit="10" width="33.1" height="40"/>
<rect x="420.5" y="672.4" fill="#FFDE00" stroke="#1D1D1B" stroke-width="1.4768" stroke-miterlimit="10" width="8.4" height="40"/>
<rect x="428.9" y="672.4" fill="#FFDE00" stroke="#1D1D1B" stroke-width="1.4768" stroke-miterlimit="10" width="25.1" height="40"/>
<rect x="453.6" y="672.4" fill="#FFDE00" stroke="#1D1D1B" stroke-width="1.4844" stroke-miterlimit="10" width="16.7" height="40"/>
<rect x="470.4" y="672.4" fill="#FFDE00" stroke="#1D1D1B" stroke-width="1.4901" stroke-miterlimit="10" width="16.7" height="40"/>
<rect x="487.1" y="672.4" fill="#FFDE00" stroke="#1D1D1B" stroke-width="1.4749" stroke-miterlimit="10" width="16.8" height="40"/>
<rect x="504" y="672.4" fill="#FFDE00" stroke="#1D1D1B" stroke-width="1.4749" stroke-miterlimit="10" width="16.9" height="40"/>
<rect x="520.8" y="672.4" fill="#FFDE00" stroke="#1D1D1B" stroke-width="1.4749" stroke-miterlimit="10" width="16.5" height="40"/>
<rect name="Bureau AEI" id="bureau_aei" x="537.4" y="672.4" fill="#FFDE00" stroke="#1D1D1B" stroke-width="1.4844" stroke-miterlimit="10" width="17.1" height="40"/>
<rect name="BDE" id="bde" x="554.5" y="672.4" fill="#FFDE00" stroke="#1D1D1B" stroke-width="1.4844" stroke-miterlimit="10" width="16.7" height="40"/>
<rect name="Club Zik'" id="zik" x="571.1" y="672.4" fill="#FFDE00" stroke="#1D1D1B" stroke-width="1.4844" stroke-miterlimit="10" width="33.4" height="40"/>
<rect name="Foyer" id="foyer" x="671.5" y="672.4" fill="#FFDE00" stroke="#1D1D1B" stroke-width="1.4676" stroke-miterlimit="10" width="66.6" height="40"/>
<rect name="Bar" id="bar" x="804.9" y="672.4" fill="#FFDE00" stroke="#1D1D1B" stroke-width="1.4711" stroke-miterlimit="10" width="66.3" height="40"/>
<rect name="E002" id="e002" x="836.7" y="500.2" fill="#FFDE00" stroke="#1D1D1B" stroke-width="1.4765" stroke-miterlimit="10" width="57.3" height="49.7"/>
<rect name="E001" id="e001" x="906.5" y="508.7" fill="#FFDE00" stroke="#1D1D1B" stroke-width="1.4844" stroke-miterlimit="10" width="28.1" height="41.7"/>
<rect name="E003" id="e003" x="906.5" y="483" fill="#FFDE00" stroke="#1D1D1B" stroke-width="1.4844" stroke-miterlimit="10" width="28.1" height="25.3"/>
<rect name="E004" id="e004" x="836.7" y="441.3" fill="#FFDE00" stroke="#1D1D1B" stroke-width="1.4857" stroke-miterlimit="10" width="57.3" height="58.4"/>
<rect name="E005" id="e005" x="906.5" y="433.3" fill="#FFDE00" stroke="#1D1D1B" stroke-width="1.4844" stroke-miterlimit="10" width="28.1" height="49.9"/>
<rect name="E007" id="e007" x="906.5" y="416.5" fill="#FFDE00" stroke="#1D1D1B" stroke-width="1.4844" stroke-miterlimit="10" width="28.1" height="16.6"/>
<rect name="E010" id="e010" x="836.7" y="383.2" fill="#FFDE00" stroke="#1D1D1B" stroke-width="1.4817" stroke-miterlimit="10" width="57.3" height="58.2"/>
<rect name="E009" id="e009" x="906.5" y="391.6" fill="#FFDE00" stroke="#1D1D1B" stroke-width="1.4844" stroke-miterlimit="10" width="27.8" height="24.6"/>
<rect name="E016" id="e016" x="836.7" y="324.6" fill="#FFDE00" stroke="#1D1D1B" stroke-width="1.4844" stroke-miterlimit="10" width="57.3" height="58.5"/>
<rect name="E011" id="e011" x="906.5" y="365.9" fill="#FFDE00" stroke="#1D1D1B" stroke-width="1.4844" stroke-miterlimit="10" width="27.8" height="25.4"/>
<rect name="E013" id="e013" x="906.5" y="349.4" fill="#FFDE00" stroke="#1D1D1B" stroke-width="1.4844" stroke-miterlimit="10" width="28.1" height="16.9"/>
<rect name="E015" id="e015" x="906.5" y="299.7" fill="#FFDE00" stroke="#1D1D1B" stroke-width="1.4844" stroke-miterlimit="10" width="28.1" height="49.9"/>
<rect name="E017" id="e017" x="906.5" y="274.5" fill="#FFDE00" stroke="#1D1D1B" stroke-width="1.4844" stroke-miterlimit="10" width="28.1" height="24.8"/>
<rect name="E019" id="e019" x="906.5" y="257.9" fill="#FFDE00" stroke="#1D1D1B" stroke-width="1.4844" stroke-miterlimit="10" width="28.1" height="16.5"/>
<rect name="E018" id="e018" x="836.7" y="257.9" fill="#FFDE00" stroke="#1D1D1B" stroke-width="1.4857" stroke-miterlimit="10" width="57.3" height="66.9"/>
<rect name="E021" id="e021" x="906.5" y="240.8" fill="#FFDE00" stroke="#1D1D1B" stroke-width="1.4844" stroke-miterlimit="10" width="28.1" height="16.9"/>
<rect name="E023" id="e023" x="906.1" y="191.1" fill="#FFDE00" stroke="#1D1D1B" stroke-width="1.4844" stroke-miterlimit="10" width="28.4" height="24.8"/>
<polygon name="E024" id="e024" fill="#FFDE00" stroke="#1D1D1B" stroke-width="1.4844" stroke-miterlimit="10" points="894,257.9 836.7,257.9 
	836.7,199.3 871.8,199.3 871.9,215.7 894,215.7 "/>
<rect name="E028" id="e028" x="871.7" y="190.2" fill="#FFDE00" stroke="#1D1D1B" stroke-width="1.4844" stroke-miterlimit="10" width="22.4" height="25.6"/>
<rect name="I002" id="i002" x="611" y="491.3" fill="#FFDE00" stroke="#1D1D1B" stroke-width="1.4844" stroke-miterlimit="10" width="26.8" height="58.4"/>
<rect name="I001" id="i001" x="650.7" y="499.6" fill="#FFDE00" stroke="#1D1D1B" stroke-width="1.4844" stroke-miterlimit="10" width="55.9" height="50"/>
<rect name="I003" id="i003" x="650.7" y="457.7" fill="#FFDE00" stroke="#1D1D1B" stroke-width="1.4844" stroke-miterlimit="10" width="55.9" height="41.7"/>
<rect name="I004" id="i004" x="611" y="466.2" fill="#FFDE00" stroke="#1D1D1B" stroke-width="1.4844" stroke-miterlimit="10" width="26.8" height="25.1"/>
<rect name="I006" id="i006" x="611" y="441.1" fill="#FFDE00" stroke="#1D1D1B" stroke-width="1.4844" stroke-miterlimit="10" width="26.8" height="25.4"/>
<rect name="I007" id="i007" x="650.2" y="433.2" fill="#FFDE00" stroke="#1D1D1B" stroke-width="1.4844" stroke-miterlimit="10" width="56.6" height="24.5"/>
<rect name="I008" id="i008" x="611" y="415.9" fill="#FFDE00" stroke="#1D1D1B" stroke-width="1.4844" stroke-miterlimit="10" width="26.8" height="25.1"/>
<rect name="I009" id="i009" x="650.2" y="382.6" fill="#FFDE00" stroke="#1D1D1B" stroke-width="1.4844" stroke-miterlimit="10" width="56.6" height="50.6"/>
<rect name="I010" id="i010" x="611" y="391.3" fill="#FFDE00" stroke="#1D1D1B" stroke-width="1.4844" stroke-miterlimit="10" width="26.7" height="24.2"/>
<rect name="I012" id="i012" x="611" y="374.2" fill="#FFDE00" stroke="#1D1D1B" stroke-width="1.4844" stroke-miterlimit="10" width="26.8" height="17.2"/>
<rect name="I014" id="i014" x="611" y="357.6" fill="#FFDE00" stroke="#1D1D1B" stroke-width="1.4844" stroke-miterlimit="10" width="26.8" height="16.6"/>
<rect name="I011" id="i011" x="650.2" y="332.9" fill="#FFDE00" stroke="#1D1D1B" stroke-width="1.4844" stroke-miterlimit="10" width="56.6" height="49.7"/>
<rect name="I015" id="i015" x="650.2" y="290.2" fill="#FFDE00" stroke="#1D1D1B" stroke-width="1.479" stroke-miterlimit="10" width="56.6" height="42.4"/>
<rect name="I016" id="i016" x="611" y="315.8" fill="#FFDE00" stroke="#1D1D1B" stroke-width="1.4844" stroke-miterlimit="10" width="26.8" height="41.7"/>
<rect name="I018" id="i018" x="611" y="299.1" fill="#FFDE00" stroke="#1D1D1B" stroke-width="1.4844" stroke-miterlimit="10" width="26.8" height="16.6"/>
<polygon name="L002" id="l002" fill="#FFDE00" stroke="#1D1D1B" stroke-width="1.4844" stroke-miterlimit="10" points="422.4,566.6 409.7,583.8 
	386,583.8 386,541.4 428.9,541.4 428.9,566.7 "/>
<polygon name="L001" id="l001" fill="#FFDE00" stroke="#1D1D1B" stroke-width="1.4844" stroke-miterlimit="10" points="482.2,582.7 457.4,582.7 
	444.9,566.7 439.3,566.7 439.3,558.1 482.2,558.1 "/>
<rect name="L003" id="l003" x="439.2" y="516.8" fill="#FFDE00" stroke="#1D1D1B" stroke-width="1.4844" stroke-miterlimit="10" width="43.1" height="41.7"/>
<rect name="L004" id="l004" x="385.2" y="508.3" fill="#FFDE00" stroke="#1D1D1B" stroke-width="1.4844" stroke-miterlimit="10" width="43.5" height="33.1"/>
<rect name="L007" id="l007" x="439.2" y="474.6" fill="#FFDE00" stroke="#1D1D1B" stroke-width="1.4844" stroke-miterlimit="10" width="43.1" height="41.9"/>
<rect name="L008" id="l008" x="385.2" y="491.4" fill="#FFDE00" stroke="#1D1D1B" stroke-width="1.4844" stroke-miterlimit="10" width="43.4" height="17.2"/>
<rect name="L010" id="l010" x="385.2" y="474.9" fill="#FFDE00" stroke="#1D1D1B" stroke-width="1.4844" stroke-miterlimit="10" width="43.5" height="16.4"/>
<rect name="L011" id="l011" x="438.7" y="415.9" fill="#FFDE00" stroke="#1D1D1B" stroke-width="1.4844" stroke-miterlimit="10" width="43.5" height="58.5"/>
<polygon name="L012" id="l012" fill="#FFDE00" stroke="#1D1D1B" stroke-width="1.4844" stroke-miterlimit="10" points="428.3,474.6 385.2,474.6 
	385.2,411.3 401,401.8 410.2,416.7 428.3,416.7 "/>
<polygon name="L015" id="l015" fill="#FFDE00" stroke="#1D1D1B" stroke-width="1.4844" stroke-miterlimit="10" points="482.2,351.8 445.1,374.9 
	445.1,407.8 482.2,407.8 "/>
<rect name="Arsenal BDS" id="arsenalbds" x="964.4" y="672.4" fill="#FFDE00" stroke="#1D1D1B" stroke-width="1.4676" stroke-miterlimit="10" width="17.5" height="40"/>
<rect name="BDS" id="bds" x="947.5" y="672.4" fill="#FFDE00" stroke="#1D1D1B" stroke-width="1.4676" stroke-miterlimit="10" width="17.1" height="40"/>
<rect name="CRAPS" id="craps" x="931.1" y="672.4" fill="#FFDE00" stroke="#1D1D1B" stroke-width="1.4676" stroke-miterlimit="10" width="16.4" height="40"/>
<polygon fill="#FFDE00" stroke="#1D1D1B" stroke-width="1.4844" stroke-miterlimit="10" points="601.6,777.3 682,777.3 682,984.8 
	860.5,984.8 860.5,776.5 940,776.1 940,1197.8 844.6,1197.8 844.6,1153.6 699.8,1153.6 699.8,1252.5 601.6,1252.5 "/>
<rect x="601.6" y="777.3" fill="#FFDE00" stroke="#1D1D1B" stroke-width="1.4844" stroke-miterlimit="10" width="42.4" height="60.1"/>
<rect x="601.6" y="837.3" fill="#FFDE00" stroke="#1D1D1B" stroke-width="1.4844" stroke-miterlimit="10" width="42.4" height="58.3"/>
<rect x="601.6" y="895.6" fill="#FFDE00" stroke="#1D1D1B" stroke-width="1.4844" stroke-miterlimit="10" width="42.4" height="60.1"/>
<rect x="601.6" y="955.7" fill="#FFDE00" stroke="#1D1D1B" stroke-width="1.4844" stroke-miterlimit="10" width="42.4" height="42.4"/>
<rect x="601.6" y="998.1" fill="#FFDE00" stroke="#1D1D1B" stroke-width="1.4844" stroke-miterlimit="10" width="42.4" height="59.2"/>
<rect x="601.6" y="1057.3" fill="#FFDE00" stroke="#1D1D1B" stroke-width="1.4844" stroke-miterlimit="10" width="42.4" height="59.2"/>
<rect x="601.6" y="1116.5" fill="#FFDE00" stroke="#1D1D1B" stroke-width="1.4844" stroke-miterlimit="10" width="42.4" height="53"/>
<rect x="656.5" y="1204.7" fill="#FFDE00" stroke="#1D1D1B" stroke-width="1.4844" stroke-miterlimit="10" width="43.3" height="47.7"/>
<rect x="656.5" y="1150" fill="#FFDE00" stroke="#1D1D1B" stroke-width="1.4844" stroke-miterlimit="10" width="43.3" height="54.7"/>
<rect x="656.5" y="1127.9" fill="#FFDE00" stroke="#1D1D1B" stroke-width="1.4844" stroke-miterlimit="10" width="43.3" height="22.1"/>
<rect x="656.5" y="1107.6" fill="#FFDE00" stroke="#1D1D1B" stroke-width="1.4844" stroke-miterlimit="10" width="43.3" height="20.3"/>
<rect x="656.5" y="1080.3" fill="#FFDE00" stroke="#1D1D1B" stroke-width="1.4844" stroke-miterlimit="10" width="16.8" height="16.8"/>
<rect x="656.5" y="1057.3" fill="#FFDE00" stroke="#1D1D1B" stroke-width="1.4844" stroke-miterlimit="10" width="43.3" height="23"/>
<rect x="656.5" y="998.1" fill="#FFDE00" stroke="#1D1D1B" stroke-width="1.4844" stroke-miterlimit="10" width="43.3" height="59.2"/>
<rect x="656.5" y="777.3" fill="#FFDE00" stroke="#1D1D1B" stroke-width="1.4844" stroke-miterlimit="10" width="25.6" height="48.6"/>
<rect x="656.5" y="825.8" fill="#FFDE00" stroke="#1D1D1B" stroke-width="1.4844" stroke-miterlimit="10" width="25.6" height="56.6"/>
<rect x="656.5" y="882.4" fill="#FFDE00" stroke="#1D1D1B" stroke-width="1.4844" stroke-miterlimit="10" width="25.6" height="42.4"/>
<rect x="656.5" y="924.8" fill="#FFDE00" stroke="#1D1D1B" stroke-width="1.4844" stroke-miterlimit="10" width="25.6" height="14.1"/>
<rect x="916.2" y="777.3" fill="#FFDE00" stroke="#1D1D1B" stroke-width="1.4844" stroke-miterlimit="10" width="23.8" height="26.5"/>
<rect x="916.2" y="803.7" fill="#FFDE00" stroke="#1D1D1B" stroke-width="1.4844" stroke-miterlimit="10" width="23.8" height="25.6"/>
<rect x="916.2" y="829.4" fill="#FFDE00" stroke="#1D1D1B" stroke-width="1.4844" stroke-miterlimit="10" width="23.8" height="24.7"/>
<rect x="916.2" y="854.1" fill="#FFDE00" stroke="#1D1D1B" stroke-width="1.4844" stroke-miterlimit="10" width="23.8" height="26.5"/>
<rect x="916.2" y="880.6" fill="#FFDE00" stroke="#1D1D1B" stroke-width="1.4844" stroke-miterlimit="10" width="23.8" height="24.7"/>
<rect x="916.2" y="905.3" fill="#FFDE00" stroke="#1D1D1B" stroke-width="1.4844" stroke-miterlimit="10" width="23.8" height="33.6"/>
<rect x="916.2" y="938.9" fill="#FFDE00" stroke="#1D1D1B" stroke-width="1.4844" stroke-miterlimit="10" width="23.8" height="25.6"/>
<rect x="916.2" y="964.5" fill="#FFDE00" stroke="#1D1D1B" stroke-width="1.4844" stroke-miterlimit="10" width="23.8" height="25.6"/>
<rect x="916.2" y="990.2" fill="#FFDE00" stroke="#1D1D1B" stroke-width="1.4844" stroke-miterlimit="10" width="23.8" height="24.7"/>
<rect x="916.2" y="1014.9" fill="#FFDE00" stroke="#1D1D1B" stroke-width="1.4844" stroke-miterlimit="10" width="23.8" height="27.4"/>
<rect x="916.2" y="1042.3" fill="#FFDE00" stroke="#1D1D1B" stroke-width="1.4844" stroke-miterlimit="10" width="23.8" height="23.8"/>
<rect x="845.4" y="999.9" fill="#FFDE00" stroke="#1D1D1B" stroke-width="1.4844" stroke-miterlimit="10" width="41.6" height="55.7"/>
<rect x="845.4" y="1053.7" fill="#FFDE00" stroke="#1D1D1B" stroke-width="1.4844" stroke-miterlimit="10" width="41.6" height="26.5"/>
<rect x="845.4" y="1080.3" fill="#FFDE00" stroke="#1D1D1B" stroke-width="1.4844" stroke-miterlimit="10" width="41.6" height="27.4"/>
<rect x="845.4" y="1128.8" fill="#FFDE00" stroke="#1D1D1B" stroke-width="1.4844" stroke-miterlimit="10" width="41.6" height="21.2"/>
<rect x="869.4" y="1150" fill="#FFDE00" stroke="#1D1D1B" stroke-width="1.4844" stroke-miterlimit="10" width="13.3" height="18.6"/>
<rect x="916.2" y="1066.1" fill="#FFDE00" stroke="#1D1D1B" stroke-width="1.4844" stroke-miterlimit="10" width="23.8" height="131.6"/>
<polygon name="Grand Amphithéâtre" id="grandamphi" fill="#FFDE00" stroke="#1D1D1B" stroke-width="1.4844" stroke-miterlimit="10" points="726.8,712.4 718,729.3 709.1,753.1 
	701.2,780.6 694.2,815.2 690.5,841.6 690.1,870.6 696.4,905.5 705,926 719.1,943.4 738,956.1 760,962.4 785.6,963.5 812.8,956.4 
	829.5,945.3 841,929.7 848.4,908.5 852.5,882.8 852.9,852.7 849.9,824.5 842.9,794 833.6,762.4 824.7,736.8 813.8,712.4 "/>
</svg>
