<?xml version="1.0" encoding="utf-8"?>
<!-- Generator: Adobe Illustrator 17.1.0, SVG Export Plug-In . SVG Version: 6.00 Build 0)  -->
<!DOCTYPE svg PUBLIC "-//W3C//DTD SVG 1.1//EN" "http://www.w3.org/Graphics/SVG/1.1/DTD/svg11.dtd">
<svg version="1.1" id="Calque_2" xmlns="http://www.w3.org/2000/svg" xmlns:xlink="http://www.w3.org/1999/xlink" x="0px" y="0px"
	 viewBox="0 0 1100 1400" enable-background="new 0 0 1100 1400" xml:space="preserve">
<polygon id="contour" fill="#AAAAAA" stroke="#1D1D1B" stroke-width="1.4776" stroke-miterlimit="10" points="990.2,657.5 942.7,657.5 
	942.6,150.2 845.7,191.2 845.4,591 715.9,601.1 715.9,244.6 620.7,288.5 620.7,608.4 492.5,618.3 492.5,353.5 395.7,413.2 
	395.7,657.5 129.7,657.5 129.7,712.4 614.3,712.4 947,712.4 990.2,712.4 "/>
<polygon fill="#FFDE00" stroke="#000000" stroke-width="0.9416" stroke-miterlimit="10" points="559.6,444.2 716.3,444.2 
	716.3,515.6 833.8,515.6 833.8,444.2 990.6,444.2 990.6,712.2 117.1,712.2 117.1,646.4 444.1,646.4 444.1,556.6 559.4,556.6 "/>
<rect name="Amphi E" id="amphie" x="559.6" y="444.2" fill="#FFDE00" stroke="#000000" stroke-width="0.9416" stroke-miterlimit="10" width="77.8" height="156.5"/>
<rect name="Amphi D" id="amphid" x="637.3" y="444.2" fill="#FFDE00" stroke="#000000" stroke-width="0.9416" stroke-miterlimit="10" width="78.9" height="147.3"/>
<rect name="Amphi C" id="amphic" x="716.3" y="515.6" fill="#FFDE00" stroke="#000000" stroke-width="0.9416" stroke-miterlimit="10" width="117.4" height="67.9"/>
<rect name="Amphi B" id="amphib" x="833.8" y="444.2" fill="#FFDE00" stroke="#000000" stroke-width="0.9416" stroke-miterlimit="10" width="80.3" height="134"/>
<rect name="Amphi A" id="amphia" x="914" y="444.2" fill="#FFDE00" stroke="#000000" stroke-width="0.9416" stroke-miterlimit="10" width="76.6" height="130.5"/>
<rect x="773.7" y="665.1" fill="#FFDE00" stroke="#000000" stroke-width="0.9416" stroke-miterlimit="10" width="56.2" height="47.3"/>
<rect x="569.1" y="664" fill="#FFDE00" stroke="#000000" stroke-width="0.9416" stroke-miterlimit="10" width="190.1" height="48.2"/>
<rect x="444.1" y="556.6" fill="#FFDE00" stroke="#000000" stroke-width="0.9416" stroke-miterlimit="10" width="115.3" height="89.9"/>
<rect x="209.8" y="663.8" fill="#FFDE00" stroke="#000000" stroke-width="0.9416" stroke-miterlimit="10" width="346.3" height="48.4"/>
</svg>
